<svg id="visual" viewBox="0 0 900 600" width="900" height="600" xmlns="http://www.w3.org/2000/svg" xmlns:xlink="http://www.w3.org/1999/xlink" version="1.1"><path d="M571 0L560.7 20C550.3 40 529.7 80 501.7 120C473.7 160 438.3 200 439 240C439.7 280 476.3 320 482.3 360C488.3 400 463.7 440 433.8 480C404 520 369 560 351.5 580L334 600L0 600L0 580C0 560 0 520 0 480C0 440 0 400 0 360C0 320 0 280 0 240C0 200 0 160 0 120C0 80 0 40 0 20L0 0Z" fill="#ffffff" stroke-linecap="round" stroke-linejoin="miter"></path></svg>